<mxfile host="app.diagrams.net" modified="2023-12-03T22:06:45.646Z" agent="Mozilla/5.0 (Windows NT 10.0; Win64; x64) AppleWebKit/537.36 (KHTML, like Gecko) Chrome/119.0.0.0 Safari/537.36" etag="-_B_ct-A4CnC4HiSI1j3" version="22.1.3" type="device">
  <diagram name="Page-1" id="OrlpG0JctS7wxFw-NEQy">
    <mxGraphModel dx="1290" dy="576" grid="1" gridSize="10" guides="1" tooltips="1" connect="1" arrows="1" fold="1" page="1" pageScale="1" pageWidth="850" pageHeight="1100" math="0" shadow="0">
      <root>
        <mxCell id="0" />
        <mxCell id="1" parent="0" />
        <mxCell id="UExDneakSTAcrRpCqQbY-11" style="rounded=0;orthogonalLoop=1;jettySize=auto;html=1;strokeColor=default;endArrow=none;endFill=0;startArrow=none;startFill=0;entryX=0;entryY=0.5;entryDx=0;entryDy=0;" parent="1" source="z5qdCUO5IbGsy1vXa8A5-2" target="NAcOau6ly_9tZRAHZsZ8-38" edge="1">
          <mxGeometry relative="1" as="geometry" />
        </mxCell>
        <mxCell id="UExDneakSTAcrRpCqQbY-12" style="rounded=0;orthogonalLoop=1;jettySize=auto;html=1;endArrow=none;endFill=0;startArrow=none;startFill=0;entryX=0;entryY=0.5;entryDx=0;entryDy=0;" parent="1" source="z5qdCUO5IbGsy1vXa8A5-2" target="NAcOau6ly_9tZRAHZsZ8-11" edge="1">
          <mxGeometry relative="1" as="geometry">
            <mxPoint x="320" y="80" as="targetPoint" />
          </mxGeometry>
        </mxCell>
        <mxCell id="UExDneakSTAcrRpCqQbY-17" style="edgeStyle=none;rounded=0;orthogonalLoop=1;jettySize=auto;html=1;startArrow=none;startFill=0;endArrow=none;endFill=0;entryX=0;entryY=0.5;entryDx=0;entryDy=0;" parent="1" source="z5qdCUO5IbGsy1vXa8A5-2" target="NAcOau6ly_9tZRAHZsZ8-17" edge="1">
          <mxGeometry relative="1" as="geometry" />
        </mxCell>
        <mxCell id="UExDneakSTAcrRpCqQbY-18" style="edgeStyle=none;rounded=0;orthogonalLoop=1;jettySize=auto;html=1;startArrow=none;startFill=0;endArrow=none;endFill=0;entryX=0;entryY=0.5;entryDx=0;entryDy=0;" parent="1" source="z5qdCUO5IbGsy1vXa8A5-2" target="NAcOau6ly_9tZRAHZsZ8-26" edge="1">
          <mxGeometry relative="1" as="geometry" />
        </mxCell>
        <mxCell id="BsZ4ZcHheICdlKva1MgZ-10" style="edgeStyle=orthogonalEdgeStyle;rounded=0;orthogonalLoop=1;jettySize=auto;html=1;" parent="1" source="z5qdCUO5IbGsy1vXa8A5-2" target="NAcOau6ly_9tZRAHZsZ8-4" edge="1">
          <mxGeometry relative="1" as="geometry">
            <mxPoint x="60" y="400" as="targetPoint" />
            <Array as="points">
              <mxPoint x="30" y="152" />
              <mxPoint x="30" y="400" />
            </Array>
          </mxGeometry>
        </mxCell>
        <mxCell id="z5qdCUO5IbGsy1vXa8A5-2" value="User" style="shape=umlActor;verticalLabelPosition=bottom;verticalAlign=top;html=1;outlineConnect=0;fontSize=9;" parent="1" vertex="1">
          <mxGeometry x="140" y="122" width="30" height="60" as="geometry" />
        </mxCell>
        <mxCell id="UExDneakSTAcrRpCqQbY-54" style="edgeStyle=none;rounded=0;orthogonalLoop=1;jettySize=auto;html=1;endArrow=block;endFill=0;" parent="1" source="NAcOau6ly_9tZRAHZsZ8-2" edge="1">
          <mxGeometry relative="1" as="geometry">
            <mxPoint x="155" y="200" as="targetPoint" />
          </mxGeometry>
        </mxCell>
        <mxCell id="UExDneakSTAcrRpCqQbY-55" style="edgeStyle=none;rounded=0;orthogonalLoop=1;jettySize=auto;html=1;endArrow=none;endFill=0;entryX=0;entryY=0.5;entryDx=0;entryDy=0;" parent="1" source="NAcOau6ly_9tZRAHZsZ8-2" target="UExDneakSTAcrRpCqQbY-1" edge="1">
          <mxGeometry relative="1" as="geometry" />
        </mxCell>
        <mxCell id="NAcOau6ly_9tZRAHZsZ8-2" value="Registered User" style="shape=umlActor;verticalLabelPosition=bottom;verticalAlign=top;html=1;outlineConnect=0;fontSize=9;" parent="1" vertex="1">
          <mxGeometry x="140" y="240" width="30" height="60" as="geometry" />
        </mxCell>
        <mxCell id="UExDneakSTAcrRpCqQbY-45" style="edgeStyle=none;rounded=0;orthogonalLoop=1;jettySize=auto;html=1;entryX=0;entryY=0.5;entryDx=0;entryDy=0;endArrow=none;endFill=0;" parent="1" source="NAcOau6ly_9tZRAHZsZ8-3" target="NAcOau6ly_9tZRAHZsZ8-41" edge="1">
          <mxGeometry relative="1" as="geometry" />
        </mxCell>
        <mxCell id="UExDneakSTAcrRpCqQbY-47" style="edgeStyle=none;rounded=0;orthogonalLoop=1;jettySize=auto;html=1;entryX=0;entryY=0.5;entryDx=0;entryDy=0;endArrow=none;endFill=0;" parent="1" source="NAcOau6ly_9tZRAHZsZ8-3" target="NAcOau6ly_9tZRAHZsZ8-43" edge="1">
          <mxGeometry relative="1" as="geometry" />
        </mxCell>
        <mxCell id="UExDneakSTAcrRpCqQbY-48" style="edgeStyle=none;rounded=0;orthogonalLoop=1;jettySize=auto;html=1;entryX=0;entryY=0.5;entryDx=0;entryDy=0;endArrow=none;endFill=0;" parent="1" source="NAcOau6ly_9tZRAHZsZ8-3" target="NAcOau6ly_9tZRAHZsZ8-45" edge="1">
          <mxGeometry relative="1" as="geometry" />
        </mxCell>
        <mxCell id="UExDneakSTAcrRpCqQbY-52" style="edgeStyle=none;rounded=0;orthogonalLoop=1;jettySize=auto;html=1;endArrow=none;endFill=0;entryX=0;entryY=0.5;entryDx=0;entryDy=0;" parent="1" source="NAcOau6ly_9tZRAHZsZ8-3" target="NAcOau6ly_9tZRAHZsZ8-57" edge="1">
          <mxGeometry relative="1" as="geometry" />
        </mxCell>
        <mxCell id="NAcOau6ly_9tZRAHZsZ8-3" value="System Admin" style="shape=umlActor;verticalLabelPosition=bottom;verticalAlign=top;html=1;outlineConnect=0;fontSize=9;" parent="1" vertex="1">
          <mxGeometry x="140" y="624" width="30" height="60" as="geometry" />
        </mxCell>
        <mxCell id="UExDneakSTAcrRpCqQbY-24" style="edgeStyle=none;rounded=0;orthogonalLoop=1;jettySize=auto;html=1;endArrow=none;endFill=0;" parent="1" source="NAcOau6ly_9tZRAHZsZ8-4" target="NAcOau6ly_9tZRAHZsZ8-28" edge="1">
          <mxGeometry relative="1" as="geometry" />
        </mxCell>
        <mxCell id="NAcOau6ly_9tZRAHZsZ8-4" value="Airline Agent" style="shape=umlActor;verticalLabelPosition=bottom;verticalAlign=top;html=1;outlineConnect=0;fontSize=9;" parent="1" vertex="1">
          <mxGeometry x="140" y="380" width="30" height="60" as="geometry" />
        </mxCell>
        <mxCell id="UExDneakSTAcrRpCqQbY-62" style="edgeStyle=none;rounded=0;orthogonalLoop=1;jettySize=auto;html=1;endArrow=block;endFill=0;entryX=0.5;entryY=0;entryDx=0;entryDy=0;entryPerimeter=0;" parent="1" target="z5qdCUO5IbGsy1vXa8A5-2" edge="1">
          <mxGeometry relative="1" as="geometry">
            <mxPoint x="130" y="150.5" as="targetPoint" />
            <mxPoint x="155" y="90" as="sourcePoint" />
          </mxGeometry>
        </mxCell>
        <mxCell id="NAcOau6ly_9tZRAHZsZ8-5" value="Tourism Agent" style="shape=umlActor;verticalLabelPosition=bottom;verticalAlign=top;html=1;outlineConnect=0;fontSize=9;" parent="1" vertex="1">
          <mxGeometry x="140" y="13" width="30" height="60" as="geometry" />
        </mxCell>
        <mxCell id="UExDneakSTAcrRpCqQbY-28" style="edgeStyle=none;rounded=0;orthogonalLoop=1;jettySize=auto;html=1;exitX=1;exitY=0.5;exitDx=0;exitDy=0;endArrow=none;endFill=0;" parent="1" source="NAcOau6ly_9tZRAHZsZ8-11" target="UExDneakSTAcrRpCqQbY-6" edge="1">
          <mxGeometry relative="1" as="geometry" />
        </mxCell>
        <mxCell id="NAcOau6ly_9tZRAHZsZ8-11" value="Select Flight" style="ellipse;whiteSpace=wrap;html=1;fontSize=9;" parent="1" vertex="1">
          <mxGeometry x="330" y="130" width="90" height="25" as="geometry" />
        </mxCell>
        <mxCell id="NAcOau6ly_9tZRAHZsZ8-24" style="edgeStyle=orthogonalEdgeStyle;rounded=0;orthogonalLoop=1;jettySize=auto;html=1;exitX=0.5;exitY=1;exitDx=0;exitDy=0;fontSize=9;startArrow=none;startFill=0;endArrow=none;endFill=0;" parent="1" edge="1">
          <mxGeometry relative="1" as="geometry">
            <mxPoint x="375" y="173" as="sourcePoint" />
            <mxPoint x="375" y="173" as="targetPoint" />
          </mxGeometry>
        </mxCell>
        <mxCell id="UExDneakSTAcrRpCqQbY-69" style="edgeStyle=none;rounded=0;orthogonalLoop=1;jettySize=auto;html=1;exitX=1;exitY=0.5;exitDx=0;exitDy=0;endArrow=none;endFill=0;" parent="1" source="NAcOau6ly_9tZRAHZsZ8-26" target="UExDneakSTAcrRpCqQbY-68" edge="1">
          <mxGeometry relative="1" as="geometry" />
        </mxCell>
        <mxCell id="NAcOau6ly_9tZRAHZsZ8-26" value="Email Ticket" style="ellipse;whiteSpace=wrap;html=1;fontSize=9;" parent="1" vertex="1">
          <mxGeometry x="330" y="170" width="90" height="25" as="geometry" />
        </mxCell>
        <mxCell id="UExDneakSTAcrRpCqQbY-36" style="edgeStyle=none;rounded=0;orthogonalLoop=1;jettySize=auto;html=1;exitX=1;exitY=0.5;exitDx=0;exitDy=0;endArrow=none;endFill=0;" parent="1" source="NAcOau6ly_9tZRAHZsZ8-28" target="UExDneakSTAcrRpCqQbY-6" edge="1">
          <mxGeometry relative="1" as="geometry" />
        </mxCell>
        <mxCell id="NAcOau6ly_9tZRAHZsZ8-28" value="Browse Passengers" style="ellipse;whiteSpace=wrap;html=1;fontSize=9;" parent="1" vertex="1">
          <mxGeometry x="330" y="397.5" width="90" height="25" as="geometry" />
        </mxCell>
        <mxCell id="UExDneakSTAcrRpCqQbY-35" style="edgeStyle=none;rounded=0;orthogonalLoop=1;jettySize=auto;html=1;exitX=1;exitY=0.5;exitDx=0;exitDy=0;endArrow=none;endFill=0;" parent="1" source="NAcOau6ly_9tZRAHZsZ8-29" target="UExDneakSTAcrRpCqQbY-6" edge="1">
          <mxGeometry relative="1" as="geometry" />
        </mxCell>
        <mxCell id="NAcOau6ly_9tZRAHZsZ8-29" value="Cancel Flight" style="ellipse;whiteSpace=wrap;html=1;fontSize=9;" parent="1" vertex="1">
          <mxGeometry x="330" y="250" width="90" height="25" as="geometry" />
        </mxCell>
        <mxCell id="UExDneakSTAcrRpCqQbY-26" style="edgeStyle=none;rounded=0;orthogonalLoop=1;jettySize=auto;html=1;exitX=1;exitY=0.5;exitDx=0;exitDy=0;endArrow=none;endFill=0;" parent="1" source="NAcOau6ly_9tZRAHZsZ8-38" target="UExDneakSTAcrRpCqQbY-6" edge="1">
          <mxGeometry relative="1" as="geometry" />
        </mxCell>
        <mxCell id="NAcOau6ly_9tZRAHZsZ8-38" value="Browse Flights" style="ellipse;whiteSpace=wrap;html=1;fontSize=9;" parent="1" vertex="1">
          <mxGeometry x="330" y="90" width="90" height="25" as="geometry" />
        </mxCell>
        <mxCell id="UExDneakSTAcrRpCqQbY-37" style="edgeStyle=none;rounded=0;orthogonalLoop=1;jettySize=auto;html=1;exitX=1;exitY=0.5;exitDx=0;exitDy=0;endArrow=none;endFill=0;" parent="1" source="NAcOau6ly_9tZRAHZsZ8-41" target="UExDneakSTAcrRpCqQbY-6" edge="1">
          <mxGeometry relative="1" as="geometry" />
        </mxCell>
        <mxCell id="NAcOau6ly_9tZRAHZsZ8-41" value="Modify Flight" style="ellipse;whiteSpace=wrap;html=1;fontSize=9;" parent="1" vertex="1">
          <mxGeometry x="335" y="470" width="90" height="25" as="geometry" />
        </mxCell>
        <mxCell id="UExDneakSTAcrRpCqQbY-39" style="edgeStyle=none;rounded=0;orthogonalLoop=1;jettySize=auto;html=1;exitX=1;exitY=0.5;exitDx=0;exitDy=0;endArrow=none;endFill=0;" parent="1" source="NAcOau6ly_9tZRAHZsZ8-43" target="UExDneakSTAcrRpCqQbY-6" edge="1">
          <mxGeometry relative="1" as="geometry" />
        </mxCell>
        <mxCell id="NAcOau6ly_9tZRAHZsZ8-43" value="Modify Crew" style="ellipse;whiteSpace=wrap;html=1;fontSize=9;" parent="1" vertex="1">
          <mxGeometry x="330" y="516" width="90" height="25" as="geometry" />
        </mxCell>
        <mxCell id="UExDneakSTAcrRpCqQbY-40" style="edgeStyle=none;rounded=0;orthogonalLoop=1;jettySize=auto;html=1;exitX=1;exitY=0.5;exitDx=0;exitDy=0;endArrow=none;endFill=0;" parent="1" source="NAcOau6ly_9tZRAHZsZ8-45" target="UExDneakSTAcrRpCqQbY-6" edge="1">
          <mxGeometry relative="1" as="geometry" />
        </mxCell>
        <mxCell id="NAcOau6ly_9tZRAHZsZ8-45" value="Browse Crew" style="ellipse;whiteSpace=wrap;html=1;fontSize=9;" parent="1" vertex="1">
          <mxGeometry x="330" y="560" width="90" height="25" as="geometry" />
        </mxCell>
        <mxCell id="UExDneakSTAcrRpCqQbY-44" style="edgeStyle=none;rounded=0;orthogonalLoop=1;jettySize=auto;html=1;exitX=1;exitY=0.5;exitDx=0;exitDy=0;endArrow=none;endFill=0;" parent="1" source="NAcOau6ly_9tZRAHZsZ8-57" target="UExDneakSTAcrRpCqQbY-6" edge="1">
          <mxGeometry relative="1" as="geometry" />
        </mxCell>
        <mxCell id="NAcOau6ly_9tZRAHZsZ8-57" value="Browse Aircraft" style="ellipse;whiteSpace=wrap;html=1;fontSize=9;" parent="1" vertex="1">
          <mxGeometry x="330" y="660" width="90" height="25" as="geometry" />
        </mxCell>
        <mxCell id="UExDneakSTAcrRpCqQbY-43" style="edgeStyle=none;rounded=0;orthogonalLoop=1;jettySize=auto;html=1;exitX=1;exitY=0.5;exitDx=0;exitDy=0;endArrow=none;endFill=0;" parent="1" source="NAcOau6ly_9tZRAHZsZ8-62" target="UExDneakSTAcrRpCqQbY-6" edge="1">
          <mxGeometry relative="1" as="geometry" />
        </mxCell>
        <mxCell id="NAcOau6ly_9tZRAHZsZ8-62" value="Modify Aircraft" style="ellipse;whiteSpace=wrap;html=1;fontSize=9;" parent="1" vertex="1">
          <mxGeometry x="330" y="610" width="90" height="25" as="geometry" />
        </mxCell>
        <mxCell id="UExDneakSTAcrRpCqQbY-74" style="edgeStyle=none;rounded=0;orthogonalLoop=1;jettySize=auto;html=1;exitX=1;exitY=0.5;exitDx=0;exitDy=0;endArrow=none;endFill=0;" parent="1" source="UExDneakSTAcrRpCqQbY-1" target="UExDneakSTAcrRpCqQbY-6" edge="1">
          <mxGeometry relative="1" as="geometry" />
        </mxCell>
        <mxCell id="UExDneakSTAcrRpCqQbY-1" value="Promo Code" style="ellipse;whiteSpace=wrap;html=1;fontSize=9;" parent="1" vertex="1">
          <mxGeometry x="330" y="320" width="90" height="25" as="geometry" />
        </mxCell>
        <mxCell id="UExDneakSTAcrRpCqQbY-6" value="Database" style="shape=umlActor;verticalLabelPosition=bottom;verticalAlign=top;html=1;outlineConnect=0;fontSize=9;" parent="1" vertex="1">
          <mxGeometry x="710" y="431.5" width="30" height="60" as="geometry" />
        </mxCell>
        <mxCell id="UExDneakSTAcrRpCqQbY-20" style="edgeStyle=none;rounded=0;orthogonalLoop=1;jettySize=auto;html=1;startArrow=none;startFill=0;endArrow=none;endFill=0;entryX=0;entryY=0.5;entryDx=0;entryDy=0;" parent="1" source="z5qdCUO5IbGsy1vXa8A5-2" target="NAcOau6ly_9tZRAHZsZ8-29" edge="1">
          <mxGeometry relative="1" as="geometry" />
        </mxCell>
        <mxCell id="UExDneakSTAcrRpCqQbY-51" style="edgeStyle=none;rounded=0;orthogonalLoop=1;jettySize=auto;html=1;endArrow=none;endFill=0;entryX=0;entryY=0.5;entryDx=0;entryDy=0;" parent="1" source="NAcOau6ly_9tZRAHZsZ8-3" target="NAcOau6ly_9tZRAHZsZ8-62" edge="1">
          <mxGeometry relative="1" as="geometry">
            <mxPoint x="310" y="660" as="targetPoint" />
          </mxGeometry>
        </mxCell>
        <mxCell id="NAcOau6ly_9tZRAHZsZ8-17" value="Make Payment" style="ellipse;whiteSpace=wrap;html=1;fontSize=9;" parent="1" vertex="1">
          <mxGeometry x="330" y="210" width="90" height="25" as="geometry" />
        </mxCell>
        <mxCell id="UExDneakSTAcrRpCqQbY-68" value="Email Server" style="shape=umlActor;verticalLabelPosition=bottom;verticalAlign=top;html=1;outlineConnect=0;fontSize=9;" parent="1" vertex="1">
          <mxGeometry x="710" y="195" width="30" height="60" as="geometry" />
        </mxCell>
        <mxCell id="UExDneakSTAcrRpCqQbY-76" value="Bank" style="shape=umlActor;verticalLabelPosition=bottom;verticalAlign=top;html=1;outlineConnect=0;fontSize=9;" parent="1" vertex="1">
          <mxGeometry x="710" y="302.5" width="30" height="60" as="geometry" />
        </mxCell>
        <mxCell id="B0byOlXb00pIka7c-8Yq-3" style="edgeStyle=none;rounded=0;orthogonalLoop=1;jettySize=auto;html=1;exitX=1;exitY=0.5;exitDx=0;exitDy=0;endArrow=none;endFill=0;" edge="1" parent="1">
          <mxGeometry relative="1" as="geometry">
            <mxPoint x="420" y="220" as="sourcePoint" />
            <mxPoint x="700" y="340" as="targetPoint" />
          </mxGeometry>
        </mxCell>
      </root>
    </mxGraphModel>
  </diagram>
</mxfile>
